<svg width="48" height="48" xmlns="http://www.w3.org/2000/svg">

 <g>
  <title>background</title>
  <rect fill="none" id="canvas_background" height="402" width="582" y="-1" x="-1"/>
 </g>
 <g>
  <title>Layer 1</title>
  <path fill="#d8c40a" id="svg_1" d="m34.945,28.107c-0.589,-1.23 -1.517,-2.334 -2.78,-3.312c-1.264,-0.977 -3.253,-2.031 -5.966,-3.16c-2.41,-0.994 -4.079,-1.795 -5.005,-2.401c-0.927,-0.607 -1.593,-1.251 -1.997,-1.934c-0.404,-0.683 -0.607,-1.505 -0.607,-2.465c0,-1.399 0.506,-2.524 1.517,-3.375c1.012,-0.851 2.495,-1.277 4.449,-1.277c2.579,0 5.512,0.691 8.798,2.073l1.921,-4.93c-2.727,-1.206 -5.465,-1.937 -8.212,-2.205l0,-5.121l-5.063,0l0,5.182c-2.45,0.339 -4.49,1.162 -6.115,2.475c-2.19,1.769 -3.286,4.196 -3.286,7.28c0,2.46 0.69,4.567 2.072,6.32c1.382,1.753 3.758,3.312 7.129,4.676c3.27,1.314 5.427,2.453 6.471,3.414c1.046,0.961 1.568,2.131 1.568,3.514c0,1.533 -0.569,2.754 -1.707,3.664c-1.138,0.912 -2.902,1.365 -5.296,1.365c-1.635,0 -3.4,-0.227 -5.296,-0.682s-3.687,-1.078 -5.372,-1.871l0,5.713c2.569,1.253 5.851,1.895 9.831,1.938l0,5.012l5.062,0l0,-5.471c2.051,-0.451 3.79,-1.226 5.203,-2.338c2.377,-1.871 3.565,-4.449 3.565,-7.736c0.002,-1.666 -0.294,-3.117 -0.884,-4.348z"/>
 </g>
</svg>