<?xml version="1.0" ?><!DOCTYPE svg  PUBLIC '-//W3C//DTD SVG 1.1//EN'  'http://www.w3.org/Graphics/SVG/1.1/DTD/svg11.dtd'><svg enable-background="new 0 0 512 512" height="512px" id="Layer_1" version="1.1" viewBox="0 0 512 512" width="512px" xml:space="preserve" xmlns="http://www.w3.org/2000/svg" xmlns:xlink="http://www.w3.org/1999/xlink"><g id="_x31_71_x2C__Contacts_x2C__Mane_x2C__Twitter"><g id="XMLID_5025_"><g id="XMLID_6745_"><g><g><g><path d="M108.014,409.5c1.076-77.379,64.356-140,141.986-140c37.924,0,73.585,14.771,100.414,41.591        c26.344,26.353,41.063,61.232,41.572,98.409H108.014z" fill="#FFF500"/></g><g><path d="M250,232.5c-35.841,0-65-29.159-65-65s29.159-65,65-65s65,29.159,65,65S285.841,232.5,250,232.5z" fill="#FFF500"/></g></g></g><g><g><path d="M410,437.5H90c-5.523,0-10-4.478-10-10v-16c0-93.738,76.262-170,170-170c45.4,0,88.093,17.682,120.21,49.788       C402.318,323.407,420,366.1,420,411.5v16C420,433.022,415.522,437.5,410,437.5z M100,417.5h300v-6       c0-40.061-15.603-77.729-43.933-106.068C327.729,277.104,290.061,261.5,250,261.5c-82.71,0-150,67.29-150,150V417.5z"/></g><g><path d="M250,260.5c-51.28,0-93-41.72-93-93c0-51.28,41.72-93,93-93c51.28,0,93,41.72,93,93C343,218.78,301.28,260.5,250,260.5       z M250,94.5c-40.252,0-73,32.748-73,73s32.748,73,73,73s73-32.748,73-73S290.252,94.5,250,94.5z"/></g></g></g></g></g><g id="Layer_1_1_"/></svg>